<?xml version="1.0" standalone="no"?>
<!DOCTYPE svg PUBLIC "-//W3C//DTD SVG 20010904//EN"
 "http://www.w3.org/TR/2001/REC-SVG-20010904/DTD/svg10.dtd">
<svg version="1.0" xmlns="http://www.w3.org/2000/svg"
 width="800.000000pt" height="800.000000pt" viewBox="0 0 800.000000 800.000000"
 preserveAspectRatio="xMidYMid meet">
<metadata>
Created by potrace 1.14, written by Peter Selinger 2001-2017
</metadata>
<g transform="translate(0.000000,800.000000) scale(0.100000,-0.100000)"
fill="#000000" stroke="none">
<path d="M5770 6340 c-12 -17 -28 -30 -36 -30 -8 0 -17 -7 -20 -15 -4 -8 -12
-15 -20 -15 -31 0 -90 -78 -440 -580 -63 -90 -116 -166 -118 -168 -2 -2 -19
35 -36 82 -18 47 -35 86 -37 86 -2 0 -126 -45 -274 -101 l-270 -101 -1467 0
c-807 0 -1474 -2 -1482 -4 -13 -3 -15 -80 -15 -618 l1 -615 -51 47 c-28 26
-63 56 -78 67 l-27 20 16 60 c17 63 15 197 -3 244 -9 22 -10 20 -27 -25 -42
-117 -53 -139 -71 -142 -21 -5 -37 17 -29 38 3 8 23 63 45 121 l38 107 -39 36
-38 35 -47 -129 c-54 -146 -65 -166 -89 -157 -25 10 -20 34 33 173 27 71 46
132 42 136 -3 4 -24 9 -47 12 l-40 5 -43 -117 c-50 -135 -65 -164 -85 -156
-27 10 -24 32 18 147 l43 115 -26 -8 c-87 -25 -96 -34 -120 -109 -17 -53 -29
-75 -44 -81 -33 -12 -44 19 -23 69 12 32 13 41 3 41 -7 0 -17 -4 -22 -9 -17
-16 -187 -101 -201 -101 -10 0 -6 -16 14 -57 16 -32 35 -76 42 -98 7 -22 16
-44 21 -49 5 -6 9 -18 9 -28 0 -29 15 -21 29 17 9 27 18 35 37 35 30 0 30 -11
2 -96 l-22 -67 29 -55 29 -54 32 83 c18 46 33 89 33 95 1 6 10 19 22 30 20 18
21 18 34 0 12 -16 10 -29 -17 -100 -63 -170 -60 -157 -40 -176 10 -10 28 -23
40 -29 25 -13 19 -23 74 124 16 44 34 92 40 108 11 30 45 37 55 12 3 -9 -16
-72 -42 -141 -26 -69 -45 -127 -42 -130 5 -5 40 -8 73 -5 14 1 26 12 34 34 7
17 16 41 20 52 5 11 19 48 30 82 23 63 42 82 65 63 15 -13 9 -40 -29 -139
l-25 -63 26 18 c49 31 93 77 130 133 20 31 38 58 39 60 13 16 147 -108 163
-152 4 -12 7 -163 7 -336 l-1 -314 -39 -13 c-47 -17 -66 -31 -66 -51 0 -21 25
-42 67 -57 l38 -13 1 -76 1 -75 -50 -14 c-113 -32 -173 11 -226 165 -40 116
-80 176 -150 221 -189 125 -416 62 -512 -141 -52 -111 -35 -183 55 -233 82
-47 84 -77 11 -156 -14 -15 -28 -39 -32 -52 -8 -35 31 -65 105 -80 82 -17 102
-55 62 -119 -14 -24 -32 -36 -67 -46 -57 -17 -81 -12 -124 27 -65 59 -124 71
-197 40 -103 -42 -151 -144 -154 -325 -2 -138 28 -181 93 -133 63 46 101 18
92 -67 -4 -42 -1 -52 20 -73 32 -32 73 -28 154 14 55 29 106 38 129 22 5 -4
11 -37 11 -73 3 -204 102 -303 283 -285 69 7 205 31 241 42 35 10 49 -5 73
-80 6 -19 7 -19 20 0 20 27 31 10 17 -24 -9 -22 -9 -35 0 -56 l13 -27 18 37
c10 21 18 44 18 52 0 7 6 12 13 9 15 -5 13 -18 -8 -77 -15 -42 -15 -45 2 -57
16 -12 20 -9 38 42 25 65 45 91 45 57 0 -12 -4 -30 -9 -40 -4 -9 -13 -32 -19
-49 -9 -30 -9 -33 11 -33 16 0 26 10 35 32 8 18 18 43 23 56 9 22 29 31 29 12
0 -6 -7 -26 -15 -45 -14 -34 -13 -35 6 -25 11 6 29 26 42 45 12 19 27 35 33
35 12 0 66 -56 82 -85 11 -19 11 -19 12 -1 0 10 -20 39 -45 64 -58 58 -61 82
-5 51 81 -46 211 -151 225 -182 19 -45 19 -8 -1 50 -23 67 -14 167 26 284 17
52 37 99 44 104 9 7 277 10 767 10 l754 0 0 -200 c1 -110 0 -205 -2 -210 -2
-7 -129 -10 -364 -10 l-360 0 3 -50 3 -50 1308 -1 c1179 0 1307 1 1308 15 1 9
2 25 3 36 3 52 14 50 -364 50 -212 0 -354 3 -358 9 -7 12 -9 395 -2 405 7 9
1810 8 1810 -1 0 -4 14 -3 30 2 19 5 28 5 25 -1 -4 -5 -12 -9 -20 -9 -8 0 -16
-4 -19 -9 -4 -5 10 -4 29 1 19 6 33 14 30 17 -2 4 14 6 35 6 36 0 47 -14 12
-16 -9 0 -35 -9 -57 -20 -45 -22 -43 -21 105 26 58 19 114 35 125 37 13 3 19
10 17 23 -2 15 0 16 6 7 5 -8 18 -12 28 -11 11 2 24 1 29 -2 6 -3 39 -2 75 1
l65 7 -70 3 c-38 2 -79 3 -90 3 -19 0 -35 13 -35 30 0 14 51 7 56 -8 4 -9 19
-15 36 -15 18 0 27 4 22 11 -3 6 -15 9 -25 6 -11 -3 -16 -1 -13 5 3 5 34 8 69
6 35 -1 66 0 69 3 4 3 -12 6 -35 7 -22 1 -44 4 -48 7 -5 2 -22 0 -39 -4 -21
-6 -32 -6 -35 2 -3 11 -162 -36 -182 -54 -5 -5 17 0 49 11 33 11 62 18 64 15
8 -7 2 -10 -48 -29 -25 -9 -33 -14 -18 -11 14 3 33 8 42 11 9 3 16 2 16 -3 0
-5 -21 -15 -47 -22 -27 -7 -56 -15 -65 -18 -12 -4 -16 0 -13 14 2 10 4 26 4
35 1 25 149 68 224 64 56 -3 67 4 49 30 -4 6 -35 10 -74 9 -41 -1 -65 2 -61 8
3 5 24 7 47 4 24 -3 58 0 81 9 22 7 49 14 60 15 11 1 0 5 -25 9 -50 9 -120 2
-120 -11 0 -5 -13 -9 -28 -9 -15 0 -32 -4 -38 -9 -12 -12 -116 -42 -122 -36
-3 2 3 8 13 12 18 6 18 7 0 13 -14 5 -3 12 45 28 79 27 98 27 45 1 -22 -11
-29 -18 -15 -14 14 3 40 10 58 15 38 9 57 23 27 19 -11 -1 -27 1 -35 5 -9 3
-42 -3 -74 -14 -68 -23 -66 -23 -66 -11 0 4 20 14 45 21 25 7 43 15 41 18 -3
2 -20 -1 -37 -7 -37 -13 -49 -4 -41 34 2 14 15 28 31 34 24 10 23 10 -9 5 -40
-7 -33 5 13 23 l32 12 -35 -5 c-31 -5 -36 -3 -36 15 0 12 7 21 16 21 8 1 29 7
45 15 29 14 24 14 -40 -1 -28 -7 -29 -6 -15 11 9 11 10 16 3 11 -7 -4 -13 -3
-13 2 0 5 34 19 75 32 41 13 73 25 71 28 -3 2 -35 -6 -71 -18 -71 -24 -100
-20 -44 5 l34 15 -30 -2 c-27 -3 -30 -1 -30 32 -2 43 21 71 86 105 27 14 50
25 53 25 2 0 7 -12 11 -27 10 -43 53 -111 96 -154 21 -21 41 -39 43 -39 2 0
-5 37 -16 82 -20 89 -19 108 11 108 23 0 28 -12 46 -112 3 -15 10 -40 16 -55
6 -15 10 -29 10 -30 -6 -20 5 -33 32 -41 67 -21 67 -22 37 119 -15 70 -24 133
-20 139 4 7 16 10 26 8 18 -3 27 -30 50 -143 3 -16 7 -34 8 -40 2 -5 6 -27 11
-47 4 -21 9 -38 11 -38 1 0 19 10 40 22 33 20 36 24 31 57 -8 51 -16 91 -27
131 -16 59 -13 90 10 90 23 0 36 -21 44 -75 3 -22 12 -62 19 -88 l12 -49 34
48 34 47 -13 63 c-13 69 -9 94 15 94 17 0 47 -58 38 -75 -18 -38 35 43 63 96
19 37 44 76 56 89 15 16 18 24 9 33 -7 7 -16 12 -20 12 -8 0 -115 75 -153 108
-12 9 -23 17 -25 17 -2 0 -2 -24 -1 -52 3 -47 1 -53 -17 -53 -14 0 -22 11 -32
44 -11 38 -19 74 -22 103 -1 8 -60 44 -87 52 l-21 6 25 -111 c21 -94 22 -113
11 -125 -26 -25 -40 2 -66 122 -13 65 -29 124 -34 130 -5 6 -26 11 -47 10 -44
-2 -44 6 -7 -156 25 -112 26 -123 11 -138 -26 -26 -40 0 -65 118 -12 58 -24
115 -26 127 -6 26 -34 21 -65 -12 l-22 -23 25 -111 c20 -92 22 -114 11 -129
-21 -28 -40 2 -59 93 -9 44 -18 81 -20 83 -6 6 -34 -65 -39 -101 -12 -71 -13
-94 -6 -145 l6 -52 -62 -35 c-34 -19 -64 -35 -66 -35 -2 0 -3 125 -3 278 0
210 3 283 13 294 18 23 129 74 187 87 28 6 79 13 115 16 85 6 158 14 195 22
93 18 169 79 191 152 13 43 10 162 -5 189 -5 9 -11 30 -12 47 -5 40 29 58 91
50 129 -17 150 -17 176 0 23 15 25 21 20 58 -20 130 -20 126 8 133 15 3 39 1
55 -6 79 -32 95 27 47 179 -15 46 -35 96 -46 111 -11 16 -20 31 -20 34 0 16
-65 68 -102 83 -51 21 -124 22 -163 2 -16 -8 -45 -38 -65 -66 -39 -58 -53 -66
-122 -68 -41 -1 -52 3 -79 31 -54 56 -43 90 48 134 47 24 77 62 68 89 -3 9
-32 36 -65 59 -74 53 -80 82 -24 134 66 62 75 105 40 188 -29 69 -118 140
-210 167 -110 33 -189 20 -293 -49 -23 -15 -43 -28 -45 -28 -2 0 -3 96 -3 214
l0 213 -662 0 c-365 0 -663 3 -663 6 0 7 91 127 96 127 2 0 3 -21 2 -46 -1
-44 14 -75 29 -61 4 4 6 25 5 47 -5 73 32 121 186 245 113 90 170 204 170 334
-1 62 3 86 16 99 24 28 21 36 -38 81 l-55 41 -21 -30z m58 -277 c-13 -47 -44
-108 -75 -150 -23 -30 -155 -143 -168 -143 -7 0 238 329 247 330 3 0 2 -17 -4
-37z m1130 -3710 c-10 -2 -26 -2 -35 0 -10 3 -2 5 17 5 19 0 27 -2 18 -5z
m-87 -39 c18 3 31 4 28 2 -5 -5 -77 -32 -142 -52 -75 -23 -67 -9 8 16 36 12
64 24 62 26 -2 2 -30 -5 -62 -16 -66 -23 -73 -24 -59 -10 18 18 119 48 125 37
4 -6 21 -7 40 -3z m99 -8 c0 -8 -51 -13 -56 -5 -3 5 9 9 25 9 17 0 31 -2 31
-4z"/>
<path d="M4168 6305 l-37 -43 42 -38 43 -39 37 44 38 44 -23 20 c-69 61 -59
60 -100 12z"/>
<path d="M3890 6083 c0 -5 14 -17 30 -27 82 -48 198 -208 215 -297 2 -12 7
-24 11 -28 4 -3 4 8 1 26 -11 58 -68 163 -119 219 -51 55 -138 123 -138 107z"/>
<path d="M4825 6018 c-63 -23 -144 -87 -181 -143 -19 -28 -44 -114 -43 -145 0
-14 9 6 18 43 10 37 31 87 47 110 37 53 125 114 190 132 29 8 39 13 24 13 -14
0 -38 -4 -55 -10z"/>
<path d="M4393 5789 l-33 -41 41 -34 c23 -19 44 -34 47 -34 4 0 22 18 40 40
l33 40 -38 35 c-21 19 -42 35 -48 34 -5 0 -25 -18 -42 -40z"/>
<path d="M3260 5700 c0 -15 7 -20 25 -20 18 0 25 5 25 20 0 15 -7 20 -25 20
-18 0 -25 -5 -25 -20z"/>
<path d="M3153 5700 c-31 -13 -29 -20 7 -20 20 0 30 5 30 15 0 17 -5 18 -37 5z"/>
<path d="M3383 5695 c0 -11 8 -15 24 -13 13 2 24 8 24 13 0 6 -11 11 -24 13
-16 2 -24 -2 -24 -13z"/>
<path d="M2986 5632 c-3 -3 -6 -23 -6 -44 0 -34 3 -38 25 -38 22 0 25 4 25 39
0 30 -4 40 -19 44 -11 3 -22 2 -25 -1z"/>
<path d="M3123 5632 c-19 -3 -23 -10 -23 -43 0 -35 3 -39 25 -39 14 0 25 6 26
13 0 6 2 25 3 40 2 32 0 34 -31 29z"/>
<path d="M3233 5631 c-5 -3 -9 -22 -8 -41 0 -30 4 -35 26 -38 25 -3 27 0 27
36 1 31 -4 41 -18 45 -10 2 -22 2 -27 -2z"/>
<path d="M3363 5633 c-8 -3 -13 -21 -13 -44 0 -35 3 -39 25 -39 23 0 25 4 25
43 0 43 -7 50 -37 40z"/>
<path d="M3476 5631 c-2 -3 -4 -23 -4 -44 -1 -36 0 -38 26 -35 24 3 27 7 27
42 0 34 -3 40 -23 41 -13 1 -24 -1 -26 -4z"/>
<path d="M3602 5622 c-4 -10 -7 -28 -7 -42 0 -20 5 -25 25 -25 22 0 25 4 25
39 0 30 -4 40 -18 42 -9 1 -21 -5 -25 -14z"/>
<path d="M2875 5575 l-30 -25 32 0 c29 0 33 3 31 25 -1 14 -3 25 -3 25 0 -1
-13 -12 -30 -25z"/>
<path d="M3720 5565 c0 -8 7 -15 16 -15 14 0 14 3 4 15 -7 8 -14 15 -16 15 -2
0 -4 -7 -4 -15z"/>
<path d="M1226 5339 c2 -4 14 -6 26 -4 34 7 35 16 1 13 -18 -1 -30 -5 -27 -9z"/>
<path d="M1186 5331 c-3 -5 0 -8 7 -7 6 0 14 -3 17 -9 3 -5 -6 -10 -20 -10
-16 0 -24 5 -22 13 2 10 -6 12 -30 7 -18 -4 -37 -11 -42 -16 -5 -5 5 -5 22 0
24 7 34 6 40 -5 8 -14 44 -15 58 -2 3 4 12 4 19 2 7 -3 16 -1 20 5 3 6 0 9 -8
5 -8 -3 -20 2 -27 11 -14 17 -26 19 -34 6z"/>
<path d="M1318 5333 c-10 -2 -18 -9 -18 -14 0 -6 7 -6 19 0 10 6 21 7 25 4 3
-3 6 -1 6 5 0 12 -3 13 -32 5z"/>
<path d="M1275 5320 c-3 -5 -1 -10 4 -10 6 0 11 5 11 10 0 6 -2 10 -4 10 -3 0
-8 -4 -11 -10z"/>
<path d="M1326 5301 c-3 -4 6 -6 19 -3 14 2 25 6 25 8 0 8 -39 4 -44 -5z"/>
<path d="M1254 5288 c-3 -5 0 -7 8 -6 7 2 12 -2 11 -7 -1 -6 7 -12 18 -12 10
-1 19 2 19 8 0 5 -6 8 -12 7 -7 -2 -12 2 -11 8 2 13 -25 15 -33 2z"/>
<path d="M1080 5281 c0 -5 9 -7 20 -4 11 3 20 7 20 9 0 2 -9 4 -20 4 -11 0
-20 -4 -20 -9z"/>
<path d="M1218 5272 c-6 -20 27 -28 38 -10 5 8 1 9 -10 5 -14 -5 -17 -3 -12 8
3 8 2 15 -3 15 -5 0 -11 -8 -13 -18z"/>
<path d="M1335 5280 c-3 -5 -1 -10 4 -10 6 0 11 5 11 10 0 6 -2 10 -4 10 -3 0
-8 -4 -11 -10z"/>
<path d="M1125 5272 c-11 -2 -24 -8 -29 -13 -6 -5 3 -5 20 0 16 4 35 6 42 4 6
-3 12 -1 12 5 0 9 -12 10 -45 4z"/>
<path d="M1368 5263 c-9 -2 -16 -12 -15 -22 1 -19 19 -22 34 -7 4 4 4 7 -2 6
-24 -5 -27 1 -9 15 20 15 20 15 -8 8z"/>
<path d="M1045 5249 c-11 -16 -1 -19 13 -3 7 8 8 14 3 14 -5 0 -13 -5 -16 -11z"/>
<path d="M1180 5249 c0 -5 5 -7 10 -4 6 3 10 8 10 11 0 2 -4 4 -10 4 -5 0 -10
-5 -10 -11z"/>
<path d="M1310 5250 c-12 -7 -10 -9 8 -7 12 0 22 5 22 9 0 11 -12 10 -30 -2z"/>
<path d="M1095 5242 c-11 -2 -24 -8 -29 -13 -6 -5 4 -5 21 0 18 5 34 7 36 4 3
-2 7 0 11 5 5 9 -6 11 -39 4z"/>
<path d="M1265 5240 c-3 -6 1 -7 9 -4 18 7 21 14 7 14 -6 0 -13 -4 -16 -10z"/>
<path d="M1194 5229 c-2 -4 -13 -6 -24 -4 -11 2 -20 0 -20 -6 0 -7 38 -6 48 2
1 1 6 2 11 3 17 2 21 13 6 13 -9 0 -18 -4 -21 -8z"/>
<path d="M1277 5211 c-10 -12 -9 -13 3 -6 8 5 24 11 34 12 31 5 32 13 2 11
-15 -1 -33 -9 -39 -17z"/>
<path d="M1133 5203 c0 -12 6 -21 12 -20 5 1 9 -3 8 -9 -2 -13 76 -7 91 6 7 7
-4 7 -69 -3 -5 -1 -9 4 -7 11 1 8 -2 11 -7 8 -5 -4 -14 2 -20 11 -9 16 -10 16
-8 -4z"/>
<path d="M1230 5210 c-13 -8 -13 -10 2 -10 9 0 20 5 23 10 8 13 -5 13 -25 0z"/>
<path d="M1040 5200 c-13 -8 -13 -10 2 -10 9 0 20 5 23 10 8 13 -5 13 -25 0z"/>
<path d="M1084 5195 c3 -10 -1 -15 -12 -16 -10 0 -12 -3 -5 -5 7 -3 20 -1 30
5 11 6 13 11 5 11 -7 0 -10 5 -7 10 3 6 1 10 -5 10 -7 0 -10 -7 -6 -15z"/>
<path d="M1320 5200 c-9 -6 -10 -10 -3 -10 6 0 15 5 18 10 8 12 4 12 -15 0z"/>
<path d="M1268 5183 c6 -2 18 -2 25 0 6 3 1 5 -13 5 -14 0 -19 -2 -12 -5z"/>
<path d="M1106 5161 c-4 -5 1 -8 9 -7 21 3 31 16 12 16 -9 0 -18 -4 -21 -9z"/>
<path d="M1046 5151 c-3 -4 6 -6 19 -3 14 2 25 6 25 8 0 8 -39 4 -44 -5z"/>
<path d="M1209 5155 c-3 -2 -20 -6 -38 -7 -18 -1 -35 -6 -38 -11 -6 -11 69 2
82 14 5 5 7 9 4 9 -3 0 -8 -2 -10 -5z"/>
<path d="M1276 5142 c-3 -5 1 -9 9 -9 8 0 12 4 9 9 -3 4 -7 8 -9 8 -2 0 -6 -4
-9 -8z"/>
<path d="M1090 5130 c-8 -5 -10 -10 -5 -10 6 0 17 5 25 10 8 5 11 10 5 10 -5
0 -17 -5 -25 -10z"/>
<path d="M1220 5130 c-12 -7 -10 -9 8 -7 12 0 22 5 22 9 0 11 -12 10 -30 -2z"/>
<path d="M1110 5109 c-22 -6 -21 -7 8 -6 19 1 35 4 37 8 5 8 -14 7 -45 -2z"/>
<path d="M1255 5109 c-3 -4 2 -6 10 -5 21 3 28 13 10 13 -9 0 -18 -4 -20 -8z"/>
<path d="M1171 5092 c-9 -7 -10 -11 -3 -7 33 17 61 15 72 -5 9 -16 8 -20 -5
-20 -9 0 -14 4 -11 8 2 4 -4 9 -15 9 -10 1 -19 -3 -19 -8 0 -6 4 -8 9 -4 5 3
12 1 15 -4 7 -11 74 -12 81 -1 3 5 -4 6 -15 3 -14 -4 -23 2 -31 21 -13 28 -49
32 -78 8z"/>
<path d="M1080 5078 c0 -4 6 -8 14 -8 8 0 17 4 20 8 2 4 -4 8 -15 8 -10 0 -19
-4 -19 -8z"/>
<path d="M1125 5059 c-3 -4 2 -6 10 -5 21 3 28 13 10 13 -9 0 -18 -4 -20 -8z"/>
<path d="M6865 2585 c-39 -17 -21 -18 25 0 19 7 28 14 20 14 -8 0 -28 -6 -45
-14z"/>
<path d="M6740 2570 c-8 -5 -10 -10 -5 -10 6 0 17 5 25 10 8 5 11 10 5 10 -5
0 -17 -5 -25 -10z"/>
<path d="M6810 2570 c-13 -8 -12 -10 3 -10 9 0 17 5 17 10 0 12 -1 12 -20 0z"/>
<path d="M6918 2573 c7 -3 16 -2 19 1 4 3 -2 6 -13 5 -11 0 -14 -3 -6 -6z"/>
<path d="M6836 2551 c-4 -5 3 -7 14 -4 23 6 26 13 6 13 -8 0 -17 -4 -20 -9z"/>
<path d="M6915 2550 c-13 -6 -15 -9 -5 -9 8 0 22 4 30 9 18 12 2 12 -25 0z"/>
<path d="M6800 2540 c-9 -6 -10 -10 -3 -10 6 0 15 5 18 10 8 12 4 12 -15 0z"/>
<path d="M6841 2529 c-18 -6 -31 -12 -29 -14 5 -5 78 14 78 20 0 6 -8 5 -49
-6z"/>
<path d="M6877 2513 c-43 -14 -76 -27 -74 -30 5 -4 167 47 167 53 0 7 -12 4
-93 -23z"/>
<path d="M6932 2503 c-24 -8 -41 -17 -39 -19 4 -5 97 26 97 32 0 6 -11 4 -58
-13z"/>
<path d="M6775 2480 c-3 -5 -1 -10 4 -10 6 0 11 5 11 10 0 6 -2 10 -4 10 -3 0
-8 -4 -11 -10z"/>
<path d="M6860 2454 c-58 -19 -108 -38 -113 -43 -8 -8 186 51 228 69 48 21
-18 6 -115 -26z"/>
<path d="M6785 2455 c-38 -12 -66 -23 -62 -24 12 -1 147 40 147 45 0 7 -13 4
-85 -21z"/>
<path d="M6877 2433 c-43 -14 -76 -27 -74 -30 5 -4 167 47 167 53 0 7 -12 4
-93 -23z"/>
<path d="M6955 2429 c-27 -10 -38 -17 -23 -14 35 7 78 23 78 30 0 3 -1 5 -2 4
-2 0 -25 -9 -53 -20z"/>
<path d="M6865 2400 l-20 -9 20 -2 c54 -6 76 -5 81 3 3 4 9 6 14 3 5 -3 11 -1
15 5 8 13 -6 13 -39 0 -16 -6 -27 -6 -31 0 -7 12 -13 12 -40 0z"/>
<path d="M6989 2389 c-10 -6 -7 -9 14 -9 29 0 35 5 14 13 -8 3 -20 1 -28 -4z"/>
<path d="M7048 2383 c6 -2 18 -2 25 0 6 3 1 5 -13 5 -14 0 -19 -2 -12 -5z"/>
<path d="M7084 2363 c4 -4 16 -8 28 -10 28 -4 18 6 -12 12 -12 2 -20 1 -16 -2z"/>
<path d="M7000 2340 l-25 -8 28 -1 c15 -1 27 4 27 9 0 6 -1 10 -2 9 -2 -1 -14
-5 -28 -9z"/>
<path d="M7049 2337 c4 -4 39 -7 77 -5 l69 3 -77 5 c-42 3 -73 1 -69 -3z"/>
<path d="M6998 2313 c7 -3 16 -2 19 1 4 3 -2 6 -13 5 -11 0 -14 -3 -6 -6z"/>
<path d="M7038 2313 c7 -3 16 -2 19 1 4 3 -2 6 -13 5 -11 0 -14 -3 -6 -6z"/>
<path d="M7070 2315 c0 -7 30 -13 34 -7 3 4 -4 9 -15 9 -10 1 -19 0 -19 -2z"/>
<path d="M7168 2303 c12 -2 30 -2 40 0 9 3 -1 5 -23 4 -22 0 -30 -2 -17 -4z"/>
<path d="M7010 2289 c0 -5 5 -7 10 -4 6 3 10 8 10 11 0 2 -4 4 -10 4 -5 0 -10
-5 -10 -11z"/>
<path d="M7078 2283 c23 -2 59 -2 80 0 20 2 1 4 -43 4 -44 0 -61 -2 -37 -4z"/>
<path d="M7110 2258 c0 -4 4 -8 9 -8 6 0 12 4 15 8 3 5 -1 9 -9 9 -8 0 -15 -4
-15 -9z"/>
<path d="M7173 2253 c15 -2 37 -2 50 0 12 2 0 4 -28 4 -27 0 -38 -2 -22 -4z"/>
<path d="M6865 2240 c3 -5 12 -7 20 -3 21 7 19 13 -6 13 -11 0 -18 -4 -14 -10z"/>
<path d="M7038 2233 c17 -2 47 -2 65 0 17 2 3 4 -33 4 -36 0 -50 -2 -32 -4z"/>
<path d="M7148 2233 c6 -2 18 -2 25 0 6 3 1 5 -13 5 -14 0 -19 -2 -12 -5z"/>
<path d="M7194 2232 c4 -3 14 -7 22 -8 9 -1 13 0 10 4 -4 3 -14 7 -22 8 -9 1
-13 0 -10 -4z"/>
<path d="M7055 2210 c5 -8 42 -6 50 1 2 3 -8 5 -25 5 -16 0 -27 -3 -25 -6z"/>
<path d="M7147 2203 c18 -2 50 -2 70 0 21 2 7 4 -32 4 -38 0 -55 -2 -38 -4z"/>
<path d="M6718 2193 c7 -3 16 -2 19 1 4 3 -2 6 -13 5 -11 0 -14 -3 -6 -6z"/>
<path d="M6842 2189 c-4 -4 -59 -23 -122 -44 -63 -21 -119 -41 -125 -46 -5 -5
31 4 80 21 94 32 109 35 101 22 -3 -5 -35 -17 -71 -27 -36 -9 -68 -21 -70 -25
-3 -5 9 -4 27 1 18 6 51 15 73 20 21 6 45 15 51 20 7 6 40 8 73 6 33 -2 58 0
56 4 -3 4 -16 6 -30 4 -14 -1 -28 1 -30 6 -3 4 -22 5 -43 2 -40 -6 -42 3 -2
10 14 3 37 10 52 16 16 6 30 6 33 1 3 -5 -7 -10 -22 -12 -16 -2 -23 -5 -18 -8
6 -3 37 -3 70 1 43 4 49 6 23 7 -26 1 -38 7 -38 17 0 10 -9 14 -30 12 -17 -1
-34 -5 -38 -8z"/>
<path d="M7033 2183 c72 -3 87 -6 78 -17 -9 -11 3 -13 61 -13 l73 1 -63 3
c-52 3 -62 6 -53 17 9 11 -6 13 -86 13 l-98 -1 88 -3z"/>
<path d="M7156 2181 c8 -8 43 -8 38 0 -2 4 -13 7 -24 6 -10 -1 -17 -3 -14 -6z"/>
<path d="M7220 2180 c-12 -8 -10 -10 8 -10 13 0 20 4 17 10 -7 12 -6 12 -25 0z"/>
<path d="M7066 2162 c-3 -5 1 -9 9 -9 8 0 12 4 9 9 -3 4 -7 8 -9 8 -2 0 -6 -4
-9 -8z"/>
<path d="M6940 2140 c-9 -6 -10 -10 -3 -10 6 0 15 5 18 10 8 12 4 12 -15 0z"/>
<path d="M6973 2138 c-2 -5 35 -7 84 -7 90 2 83 6 -20 11 -33 2 -61 0 -64 -4z"/>
<path d="M7176 2128 c3 -5 10 -6 15 -3 13 9 11 12 -6 12 -8 0 -12 -4 -9 -9z"/>
<path d="M7210 2129 c0 -5 5 -7 10 -4 6 3 10 8 10 11 0 2 -4 4 -10 4 -5 0 -10
-5 -10 -11z"/>
<path d="M6790 2118 c0 -4 15 -7 34 -5 19 1 32 5 29 10 -6 9 -63 5 -63 -5z"/>
<path d="M6918 2113 c29 -2 74 -2 100 0 26 2 2 3 -53 3 -55 0 -76 -1 -47 -3z"/>
<path d="M7080 2110 c6 -4 46 -8 88 -8 42 -1 73 1 67 3 -19 7 -166 12 -155 5z"/>
<path d="M6736 2101 c-33 -7 -47 -31 -19 -32 10 0 26 -2 36 -4 9 -2 15 1 11 6
-3 5 -8 8 -12 5 -4 -2 -16 0 -27 5 -13 5 12 8 67 6 48 -1 84 1 80 4 -11 10
-104 17 -136 10z"/>
<path d="M6900 2090 c8 -5 20 -10 25 -10 6 0 3 5 -5 10 -8 5 -19 10 -25 10 -5
0 -3 -5 5 -10z"/>
<path d="M6953 2083 c9 -2 23 -2 30 0 6 3 -1 5 -18 5 -16 0 -22 -2 -12 -5z"/>
<path d="M7018 2083 c12 -2 32 -2 45 0 12 2 2 4 -23 4 -25 0 -35 -2 -22 -4z"/>
<path d="M7098 2083 c6 -2 18 -2 25 0 6 3 1 5 -13 5 -14 0 -19 -2 -12 -5z"/>
<path d="M7150 2078 c0 -4 4 -8 9 -8 6 0 12 4 15 8 3 5 -1 9 -9 9 -8 0 -15 -4
-15 -9z"/>
<path d="M7210 2080 c0 -5 5 -10 11 -10 5 0 7 5 4 10 -3 6 -8 10 -11 10 -2 0
-4 -4 -4 -10z"/>
<path d="M6788 2068 c5 -5 16 -8 23 -6 8 3 3 7 -10 11 -17 4 -21 3 -13 -5z"/>
<path d="M6830 2068 c0 -5 37 -7 83 -7 85 2 75 6 -26 11 -31 2 -57 0 -57 -4z"/>
<path d="M7004 2063 c8 -8 56 -11 51 -3 -3 4 -16 8 -30 8 -14 0 -24 -3 -21 -5z"/>
<path d="M7090 2058 c0 -4 30 -8 68 -7 77 1 73 6 -10 12 -32 2 -58 0 -58 -5z"/>
<path d="M6710 2050 c-13 -8 -12 -10 3 -10 9 0 17 5 17 10 0 12 -1 12 -20 0z"/>
<path d="M6768 2043 c18 -2 45 -2 60 0 15 2 0 4 -33 4 -33 0 -45 -2 -27 -4z"/>
<path d="M6865 2040 c3 -5 8 -10 11 -10 2 0 4 5 4 10 0 6 -5 10 -11 10 -5 0
-7 -4 -4 -10z"/>
<path d="M6896 2038 c3 -5 10 -6 15 -3 13 9 11 12 -6 12 -8 0 -12 -4 -9 -9z"/>
<path d="M6955 2040 c-3 -5 -1 -10 4 -10 6 0 11 5 11 10 0 6 -2 10 -4 10 -3 0
-8 -4 -11 -10z"/>
<path d="M6980 2038 c0 -3 29 -8 65 -10 36 -1 65 0 65 4 0 3 -29 8 -65 10 -36
1 -65 0 -65 -4z"/>
<path d="M7176 2028 c3 -5 10 -6 15 -3 13 9 11 12 -6 12 -8 0 -12 -4 -9 -9z"/>
<path d="M6706 2018 c3 -5 10 -6 15 -3 13 9 11 12 -6 12 -8 0 -12 -4 -9 -9z"/>
<path d="M6746 2022 c-2 -4 4 -8 14 -8 10 0 16 4 14 8 -3 4 -9 8 -14 8 -5 0
-11 -4 -14 -8z"/>
<path d="M6810 2014 c59 -8 140 -8 140 -1 0 4 -37 6 -82 6 -46 -1 -72 -3 -58
-5z"/>
<path d="M6998 2008 c-9 -5 -6 -7 9 -5 12 2 25 6 28 8 8 9 -23 6 -37 -3z"/>
<path d="M7070 2010 c0 -5 5 -10 11 -10 5 0 7 5 4 10 -3 6 -8 10 -11 10 -2 0
-4 -4 -4 -10z"/>
<path d="M7123 2003 c15 -2 37 -2 50 0 12 2 0 4 -28 4 -27 0 -38 -2 -22 -4z"/>
<path d="M6748 1993 c23 -2 59 -2 80 0 20 2 1 4 -43 4 -44 0 -61 -2 -37 -4z"/>
<path d="M6904 1993 c4 -4 16 -8 28 -10 28 -4 18 6 -12 12 -12 2 -20 1 -16 -2z"/>
<path d="M7003 1983 c26 -2 67 -2 90 0 23 2 2 3 -48 3 -49 0 -68 -1 -42 -3z"/>
<path d="M7150 1979 c0 -5 5 -7 10 -4 6 3 10 8 10 11 0 2 -4 4 -10 4 -5 0 -10
-5 -10 -11z"/>
<path d="M6730 1976 c0 -2 7 -7 16 -10 8 -3 12 -2 9 4 -6 10 -25 14 -25 6z"/>
<path d="M6780 1970 c8 -5 20 -10 25 -10 6 0 3 5 -5 10 -8 5 -19 10 -25 10 -5
0 -3 -5 5 -10z"/>
<path d="M6868 1963 c29 -2 74 -2 100 0 26 2 2 3 -53 3 -55 0 -76 -1 -47 -3z"/>
<path d="M7026 1958 c3 -5 10 -6 15 -3 13 9 11 12 -6 12 -8 0 -12 -4 -9 -9z"/>
<path d="M7095 1960 c-3 -5 -1 -10 4 -10 6 0 11 5 11 10 0 6 -2 10 -4 10 -3 0
-8 -4 -11 -10z"/>
<path d="M6741 1946 c7 -8 118 -10 126 -3 3 4 -24 7 -62 7 -38 0 -66 -2 -64
-4z"/>
<path d="M6894 1943 c3 -3 17 -7 32 -9 14 -1 23 0 20 3 -3 4 -18 8 -32 9 -14
2 -24 0 -20 -3z"/>
<path d="M6974 1938 c-3 -5 28 -7 68 -7 75 2 69 6 -15 11 -27 2 -51 0 -53 -4z"/>
<path d="M6820 1919 c0 -5 9 -9 20 -9 11 0 20 2 20 4 0 2 -9 6 -20 9 -11 3
-20 1 -20 -4z"/>
<path d="M6870 1918 c0 -4 33 -8 73 -7 84 1 79 6 -10 11 -35 3 -63 1 -63 -4z"/>
<path d="M6910 1890 c-9 -6 -10 -10 -3 -10 6 0 15 5 18 10 8 12 4 12 -15 0z"/>
<path d="M6953 1883 c9 -2 23 -2 30 0 6 3 -1 5 -18 5 -16 0 -22 -2 -12 -5z"/>
</g>
</svg>
